<svg width="60" height="60" viewBox="0 0 60 60" fill="none" xmlns="http://www.w3.org/2000/svg">
<rect width="60" height="60" rx="8" fill="#231A4F"/>
<path fill-rule="evenodd" clip-rule="evenodd" d="M41.9871 11.7191H28.9981L20.1258 6.60191V5H16.9952V6.59617L8.11435 11.7177H4.90479V13.8794H16.9952V53.9904H20.1258V13.8809H41.9871V11.7191ZM16.9938 11.7191H10.7038L16.9938 8.09187V11.7191ZM20.1258 11.7191V8.09617L26.4072 11.7191H20.1258ZM30.9617 13.8809H32.2062V15.8522H30.9617V13.8809Z" fill="white"/>
<path d="M22.1865 15.8H35.0433L37.1067 29.5082H37.2919L39.3554 15.8H52.2121V54H43.8261V45.1378L44.4081 29.6305H44.2494L40.604 44H33.7947L30.1493 29.6305H29.9905L30.5725 45.1378V54H22.1865V15.8Z" fill="white"/>
<path d="M30.95 15.8H32.21V26.8H30.95V15.8Z" fill="#231A4F"/>
</svg>
