<svg width="36" height="32" viewBox="0 0 36 32" fill="none" xmlns="http://www.w3.org/2000/svg">
<path d="M13.4876 3.77008H20.8897L13.2061 27.0342C13.1271 27.2735 12.9769 27.4811 12.7759 27.6281C12.5756 27.7751 12.3344 27.8544 12.0875 27.8544H6.32729C6.14038 27.8544 5.95559 27.809 5.78914 27.7218C5.62268 27.6346 5.4788 27.5077 5.36948 27.3528C5.26016 27.1978 5.18892 27.0176 5.16141 26.8288C5.13391 26.64 5.15013 26.4468 5.21008 26.2652L12.3696 4.59098C12.4486 4.3517 12.5989 4.14413 12.7999 3.99711C13.0002 3.85008 13.2414 3.7708 13.4883 3.7708L13.4876 3.77008Z" fill="url(#paint0_linear_7969_394219)"/>
<path d="M24.2443 19.3744H12.5066C12.3973 19.3744 12.2908 19.4076 12.2005 19.4703C12.1102 19.533 12.0404 19.6224 12.0009 19.7254C11.9607 19.8292 11.9522 19.9431 11.9762 20.0512C12.0002 20.16 12.0559 20.2588 12.1356 20.3344L19.6782 27.5279C19.8975 27.7377 20.1867 27.8537 20.4871 27.8537H27.1332L24.2443 19.373V19.3744Z" fill="#0078D4"/>
<path d="M13.488 3.77009C13.2383 3.76936 12.995 3.85009 12.7932 4C12.5915 4.15063 12.442 4.36252 12.3672 4.60612L5.21966 26.2465C5.15548 26.4281 5.13573 26.6234 5.16112 26.8144C5.18651 27.0061 5.25704 27.1885 5.36566 27.3463C5.47498 27.5041 5.61957 27.6332 5.78743 27.7218C5.95529 27.8104 6.14149 27.8566 6.33052 27.8559H12.2396C12.4596 27.8155 12.6656 27.7168 12.8356 27.5683C13.0062 27.4205 13.1346 27.2288 13.2087 27.0133L14.6341 22.7214L19.7257 27.574C19.9387 27.7542 20.2067 27.8544 20.4839 27.8566H27.1053L24.2009 19.3759L15.7351 19.378L20.917 3.77009H13.488Z" fill="url(#paint1_linear_7969_394219)"/>
<path d="M22.9419 4.58954C22.8629 4.35098 22.7127 4.14341 22.5124 3.99639C22.3121 3.84936 22.0716 3.77008 21.8254 3.77008H13.5762C13.823 3.77008 14.0628 3.84936 14.2631 3.99639C14.4634 4.14341 14.6137 4.35098 14.6927 4.58954L21.8522 26.2659C21.9122 26.4468 21.9291 26.64 21.9009 26.8295C21.8734 27.0184 21.8022 27.1986 21.6928 27.3535C21.5835 27.5085 21.4403 27.6353 21.2732 27.7225C21.1067 27.8097 20.9226 27.8551 20.735 27.8551H28.9843C29.1712 27.8551 29.356 27.8097 29.5224 27.7225C29.6889 27.6353 29.8328 27.5085 29.9414 27.3535C30.0507 27.1986 30.1219 27.0184 30.1495 26.8295C30.177 26.6407 30.1607 26.4476 30.1008 26.2659L22.9419 4.58954Z" fill="url(#paint2_linear_7969_394219)"/>
<defs>
<linearGradient id="paint0_linear_7969_394219" x1="16.1861" y1="5.55531" x2="8.19481" y2="28.6561" gradientUnits="userSpaceOnUse">
<stop stop-color="#114A8B"/>
<stop offset="1" stop-color="#0669BC"/>
</linearGradient>
<linearGradient id="paint1_linear_7969_394219" x1="18.5866" y1="16.3697" x2="16.8008" y2="16.9604" gradientUnits="userSpaceOnUse">
<stop stop-opacity="0.3"/>
<stop offset="0.07" stop-opacity="0.2"/>
<stop offset="0.32" stop-opacity="0.1"/>
<stop offset="0.62" stop-opacity="0.05"/>
<stop offset="1" stop-opacity="0"/>
</linearGradient>
<linearGradient id="paint2_linear_7969_394219" x1="17.6641" y1="4.85693" x2="26.4275" y2="27.7045" gradientUnits="userSpaceOnUse">
<stop stop-color="#3CCBF4"/>
<stop offset="1" stop-color="#2892DF"/>
</linearGradient>
</defs>
</svg>
