<svg width="36" height="32" viewBox="0 0 36 32" fill="none" xmlns="http://www.w3.org/2000/svg">
<path d="M34.6277 13.2505C34.5368 13.1733 33.72 12.5398 31.9659 12.5398C31.5124 12.5398 31.0434 12.5859 30.5899 12.6638C30.257 10.2991 28.3364 9.15532 28.261 9.09406L27.7919 8.81586L27.4893 9.26414C27.1113 9.86667 26.8242 10.547 26.6578 11.2425C26.3404 12.5874 26.5365 13.8544 27.2023 14.9362C26.4004 15.3996 25.0998 15.5078 24.8275 15.5236H3.35096C2.79165 15.5236 2.33743 15.987 2.33743 16.5593C2.30711 18.4757 2.62449 20.3921 3.27479 22.2004C4.01606 24.1787 5.11987 25.6469 6.54176 26.5434C8.14492 27.5481 10.7616 28.1196 13.7105 28.1196C15.0414 28.1196 16.3723 27.9957 17.6884 27.7485C19.5187 27.4083 21.2728 26.7596 22.8915 25.8169C24.2224 25.0285 25.4172 24.0245 26.4307 22.8497C28.1396 20.8872 29.1532 18.6926 29.8944 16.7452H30.197C32.0576 16.7452 33.2066 15.9878 33.842 15.3391C34.2652 14.9369 34.5833 14.4425 34.8097 13.8861L34.9458 13.484L34.6284 13.2519L34.6277 13.2505Z" fill="#0091E2"/>
<path d="M5.34679 14.8886H8.22021C8.35633 14.8886 8.47764 14.7805 8.47764 14.6256V11.9985C8.47764 11.8594 8.37185 11.7362 8.22021 11.7362H5.34679C5.21067 11.7362 5.08936 11.8443 5.08936 11.9985V14.6256C5.10417 14.7798 5.21067 14.8886 5.34679 14.8886Z" fill="#0091E2"/>
<path d="M9.30968 14.8886H12.1831C12.3192 14.8886 12.4398 14.7805 12.4398 14.6256V11.9985C12.4398 11.8594 12.334 11.7362 12.1831 11.7362H9.30968C9.17356 11.7362 9.05225 11.8443 9.05225 11.9985V14.6256C9.06706 14.7798 9.17356 14.8886 9.30968 14.8886Z" fill="#0091E2"/>
<path d="M13.3487 14.8886H16.2222C16.3583 14.8886 16.4796 14.7805 16.4796 14.6256V11.9985C16.4796 11.8594 16.3738 11.7362 16.2222 11.7362H13.3487C13.2126 11.7362 13.0913 11.8443 13.0913 11.9985V14.6256C13.0913 14.7798 13.1971 14.8886 13.3487 14.8886Z" fill="#0091E2"/>
<path d="M17.3253 14.8886H20.1987C20.3349 14.8886 20.4562 14.7805 20.4562 14.6256V11.9985C20.4562 11.8594 20.3504 11.7362 20.1987 11.7362H17.3253C17.1892 11.7362 17.0679 11.8443 17.0679 11.9985V14.6256C17.0679 14.7798 17.1892 14.8886 17.3253 14.8886Z" fill="#0091E2"/>
<path d="M9.30968 11.1329H12.1831C12.3192 11.1329 12.4398 11.009 12.4398 10.8699V8.24286C12.4398 8.10376 12.334 7.9798 12.1831 7.9798H9.30968C9.17356 7.9798 9.05225 8.08791 9.05225 8.24286V10.8699C9.06706 11.009 9.17356 11.1329 9.30968 11.1329Z" fill="#0091E2"/>
<path d="M13.3487 11.1329H16.2222C16.3583 11.1329 16.4796 11.009 16.4796 10.8699V8.24286C16.4796 8.10376 16.3738 7.9798 16.2222 7.9798H13.3487C13.2126 7.9798 13.0913 8.08791 13.0913 8.24286V10.8699C13.0913 11.009 13.1971 11.1329 13.3487 11.1329Z" fill="#0091E2"/>
<path d="M17.3253 11.1329H20.1987C20.3349 11.1329 20.4562 11.009 20.4562 10.8699V8.24286C20.4562 8.10376 20.3349 7.9798 20.1987 7.9798H17.3253C17.1892 7.9798 17.0679 8.08791 17.0679 8.24286V10.8699C17.0679 11.009 17.1892 11.1329 17.3253 11.1329Z" fill="#0091E2"/>
<path d="M17.3253 7.36214H20.1987C20.3349 7.36214 20.4562 7.25403 20.4562 7.09907V4.47205C20.4562 4.33295 20.3349 4.20898 20.1987 4.20898H17.3253C17.1892 4.20898 17.0679 4.31709 17.0679 4.47205V7.09907C17.0679 7.23817 17.1892 7.36214 17.3253 7.36214Z" fill="#0091E2"/>
<path d="M21.3351 14.8886H24.2085C24.3446 14.8886 24.4659 14.7805 24.4659 14.6256V11.9985C24.4659 11.8594 24.3601 11.7362 24.2085 11.7362H21.3351C21.199 11.7362 21.0776 11.8443 21.0776 11.9985V14.6256C21.0924 14.7798 21.199 14.8886 21.3351 14.8886Z" fill="#0091E2"/>
</svg>
