<svg width="36" height="32" viewBox="0 0 36 32" fill="none" xmlns="http://www.w3.org/2000/svg">
<path d="M30.332 7.86269C30.1655 7.33018 29.7662 6.89752 29.2669 6.63127L19.116 1.77212C18.8497 1.63899 18.5502 1.60571 18.2839 1.60571C18.0177 1.60571 17.7181 1.60571 17.4519 1.67228L7.30094 6.5647C6.80172 6.79767 6.43562 7.23034 6.30249 7.79613L3.80635 18.7458C3.70651 19.3116 3.83964 19.8774 4.17245 20.3434L11.1949 29.0299C11.5943 29.4293 12.1601 29.6956 12.7259 29.7288H23.9086C24.5076 29.7954 25.0734 29.5291 25.4395 29.0299L32.462 20.3434C32.7948 19.8774 32.9279 19.3116 32.8614 18.7458L30.332 7.86269Z" fill="#326DE6"/>
<path d="M28.7687 18.3132C28.7354 18.3132 28.7021 18.3132 28.7021 18.2799C28.7021 18.2466 28.6356 18.2467 28.569 18.2467C28.4359 18.2134 28.3028 18.2134 28.1696 18.2134C28.1031 18.2134 28.0365 18.2134 27.9699 18.1801H27.9367C27.5706 18.1468 27.1712 18.0802 26.8051 17.9804C26.7052 17.9471 26.6054 17.8473 26.5721 17.7474C26.5721 17.7474 26.6054 17.7474 26.5721 17.7474L26.3058 17.6809C26.439 16.7157 26.3724 15.7172 26.1727 14.7521C25.9398 13.7869 25.5404 12.855 25.0079 12.023L25.2076 11.8233V11.79C25.2076 11.6901 25.2408 11.557 25.3074 11.4904C25.6069 11.2242 25.9065 11.0245 26.2393 10.8248C26.3059 10.7915 26.3724 10.7582 26.439 10.725C26.5721 10.6584 26.6719 10.5918 26.8051 10.5253C26.8384 10.492 26.8716 10.492 26.9049 10.4587C26.9382 10.4254 26.9049 10.4254 26.9049 10.3921C27.2045 10.1592 27.271 9.75979 27.0381 9.46025C26.9382 9.32713 26.7385 9.22728 26.5721 9.22728C26.4057 9.22728 26.2393 9.29384 26.1062 9.39369L26.0729 9.42697C26.0396 9.46025 26.0063 9.49354 25.973 9.49354C25.8732 9.59338 25.7733 9.69323 25.7068 9.79307C25.6735 9.85963 25.6069 9.89292 25.5737 9.9262C25.3407 10.1925 25.0411 10.4587 24.7416 10.6584C24.675 10.6917 24.6085 10.725 24.5419 10.725C24.5086 10.725 24.4421 10.725 24.4088 10.6917H24.3755L24.1093 10.8581C23.843 10.5918 23.5435 10.3256 23.2772 10.0593C22.0458 9.09415 20.5148 8.49508 18.9506 8.32867L18.9173 8.06242V8.0957C18.8174 8.02913 18.7842 7.92929 18.7509 7.82944C18.7509 7.46334 18.7509 7.09724 18.8174 6.69786V6.66458C18.8174 6.59802 18.8507 6.53145 18.8507 6.46489C18.884 6.33176 18.884 6.19864 18.9173 6.06551V5.86582C18.9506 5.533 18.6843 5.20018 18.3515 5.1669C18.1518 5.13362 17.9521 5.23346 17.7857 5.39987C17.6526 5.533 17.586 5.69941 17.586 5.86582V6.03223C17.586 6.16535 17.6193 6.29848 17.6526 6.43161C17.6859 6.49817 17.6859 6.56474 17.6859 6.6313V6.66458C17.7524 7.03068 17.7524 7.39678 17.7524 7.79616C17.7191 7.89601 17.6859 7.99585 17.586 8.06242V8.12898L17.5527 8.39523C17.1866 8.42852 16.8205 8.49508 16.4212 8.56164C14.8569 8.89446 13.4258 9.72651 12.3275 10.8914L12.1278 10.7582H12.0945C12.0612 10.7582 12.028 10.7915 11.9614 10.7915C11.8948 10.7915 11.8283 10.7582 11.7617 10.725C11.4622 10.492 11.1626 10.2257 10.9297 9.95948C10.8964 9.89292 10.8298 9.85963 10.7965 9.82635C10.6967 9.72651 10.6301 9.62666 10.5303 9.52682C10.497 9.49353 10.4637 9.49353 10.4304 9.46025C10.3971 9.42697 10.3971 9.42697 10.3971 9.42697C10.264 9.32713 10.0976 9.26056 9.9312 9.26056C9.73151 9.26056 9.5651 9.32713 9.46526 9.49354C9.26557 9.79307 9.33213 10.1925 9.59838 10.4254C9.63167 10.4254 9.63167 10.4587 9.63167 10.4587C9.63167 10.4587 9.69823 10.5253 9.73151 10.5253C9.83136 10.5918 9.96448 10.6584 10.0976 10.725C10.1642 10.7582 10.2307 10.7915 10.2973 10.8248C10.6301 11.0245 10.9629 11.2242 11.2292 11.4904C11.2958 11.557 11.3623 11.6901 11.329 11.79V11.7567L11.5287 11.9564C11.4954 12.023 11.4622 12.0562 11.4289 12.1228C10.3971 13.7536 9.96448 15.684 10.264 17.581L9.99777 17.6476C9.99777 17.6809 9.96448 17.6809 9.96448 17.6809C9.9312 17.7807 9.83136 17.8473 9.73151 17.9138C9.36541 18.0137 8.99931 18.0802 8.59993 18.1135C8.53337 18.1135 8.4668 18.1135 8.40024 18.1468C8.26711 18.1468 8.13398 18.1801 8.00086 18.1801C7.96758 18.1801 7.93429 18.2134 7.86773 18.2134C7.83445 18.2134 7.83445 18.2134 7.80117 18.2467C7.43507 18.3132 7.20209 18.646 7.26866 19.0121C7.33522 19.3117 7.63476 19.5114 7.93429 19.4781C8.00086 19.4781 8.03414 19.4781 8.1007 19.4448C8.13398 19.4448 8.13398 19.4448 8.13398 19.4115C8.13398 19.3782 8.23383 19.4115 8.26711 19.4115C8.40024 19.3782 8.53337 19.3117 8.63321 19.2784C8.69978 19.2451 8.76634 19.2118 8.8329 19.2118H8.86618C9.23228 19.0787 9.5651 18.9789 9.96448 18.9123H9.99777C10.0976 18.9123 10.1975 18.9456 10.264 19.0121C10.2973 19.0121 10.2973 19.0454 10.2973 19.0454L10.5968 19.0121C11.0961 20.5431 12.028 21.9076 13.3259 22.9061C13.6255 23.1391 13.8917 23.3388 14.2246 23.5052L14.0581 23.7381C14.0581 23.7714 14.0914 23.7714 14.0914 23.7714C14.158 23.8713 14.158 24.0044 14.1247 24.1042C13.9916 24.4371 13.7919 24.7699 13.5922 25.0694V25.1027C13.5589 25.1693 13.5256 25.2025 13.4591 25.2691C13.3925 25.3357 13.3259 25.4688 13.2261 25.6019C13.1928 25.6352 13.1928 25.6685 13.1595 25.7018C13.1595 25.7018 13.1595 25.7351 13.1263 25.7351C12.9598 26.0679 13.093 26.4673 13.3925 26.6337C13.4591 26.6669 13.5589 26.7002 13.6255 26.7002C13.8917 26.7002 14.1247 26.5338 14.2578 26.3008C14.2578 26.3008 14.2578 26.2676 14.2911 26.2676C14.2911 26.2343 14.3244 26.201 14.3577 26.1677C14.391 26.0346 14.4575 25.9347 14.4908 25.8016L14.5574 25.6019C14.6572 25.2358 14.8236 24.903 14.99 24.5702C15.0566 24.4703 15.1564 24.4038 15.2563 24.3705C15.2896 24.3705 15.2896 24.3705 15.2896 24.3372L15.4227 24.071C16.3546 24.4371 17.3198 24.6035 18.3182 24.6035C18.9173 24.6035 19.5164 24.5369 20.1154 24.3705C20.4815 24.3039 20.8476 24.1708 21.1805 24.071L21.3136 24.3039C21.3469 24.3039 21.3469 24.3039 21.3469 24.3372C21.4467 24.3705 21.5466 24.4371 21.6131 24.5369C21.7795 24.8697 21.9459 25.2025 22.0458 25.5686V25.6019L22.1123 25.8016C22.1456 25.9347 22.1789 26.0679 22.2455 26.1677C22.2788 26.201 22.2788 26.2343 22.312 26.2676C22.312 26.2676 22.312 26.3008 22.3453 26.3008C22.4784 26.5338 22.7114 26.7002 22.9777 26.7002C23.0775 26.7002 23.1441 26.6669 23.2439 26.6337C23.3771 26.5671 23.5102 26.434 23.5435 26.2676C23.5767 26.1012 23.5767 25.9347 23.5102 25.7683C23.5102 25.7351 23.4769 25.7351 23.4769 25.7351C23.4769 25.7018 23.4436 25.6685 23.4103 25.6352C23.3438 25.5021 23.2772 25.4022 23.1774 25.3024C23.1441 25.2358 23.1108 25.2025 23.0442 25.136V25.0694C22.8113 24.7699 22.6449 24.4371 22.5117 24.1042C22.4784 24.0044 22.4784 23.8713 22.545 23.7714C22.545 23.7381 22.5783 23.7381 22.5783 23.7381L22.4784 23.4719C24.1758 22.4402 25.4738 20.8426 26.0729 18.9456L26.3391 18.9789C26.3724 18.9789 26.3724 18.9456 26.3724 18.9456C26.439 18.879 26.5388 18.8457 26.6387 18.8457H26.672C27.0381 18.9123 27.4042 19.0121 27.737 19.1453H27.7703C27.8368 19.1785 27.9034 19.2118 27.9699 19.2118C28.1031 19.2784 28.2029 19.345 28.336 19.3782C28.3693 19.3782 28.4026 19.4115 28.4692 19.4115C28.5024 19.4115 28.5025 19.4115 28.5357 19.4448C28.6023 19.4781 28.6356 19.4781 28.7021 19.4781C29.0017 19.4781 29.2679 19.2784 29.3678 19.0121C29.3345 18.646 29.0682 18.3798 28.7687 18.3132ZM19.1503 17.2815L18.2517 17.7141L17.353 17.2815L17.1201 16.3163L17.7524 15.5175H18.7509L19.3832 16.3163L19.1503 17.2815ZM24.5752 15.1182C24.7416 15.8171 24.7749 16.516 24.7083 17.2149L21.5466 16.3163C21.247 16.2497 21.0806 15.9502 21.1472 15.6507C21.1805 15.5508 21.2137 15.4843 21.2803 15.4177L23.7764 13.1545C24.1425 13.7536 24.4088 14.4192 24.5752 15.1182ZM22.778 11.9231L20.0489 13.8535C19.8159 13.9866 19.4831 13.9533 19.3167 13.7203C19.2501 13.6538 19.2168 13.5872 19.2168 13.4874L19.0171 10.1259C20.4815 10.2923 21.7795 10.9247 22.778 11.9231ZM16.754 10.2257L17.4196 10.0926L17.2532 13.4208C17.2532 13.7203 16.9869 13.9533 16.6874 13.9533C16.5876 13.9533 16.521 13.92 16.4212 13.8867L13.6588 11.9231C14.5241 11.0911 15.5891 10.492 16.754 10.2257ZM12.6936 13.1545L15.1564 15.3511C15.3894 15.5508 15.4227 15.8836 15.223 16.1166C15.1564 16.2165 15.0899 16.2497 14.9568 16.283L11.7284 17.2149C11.6286 15.8171 11.9614 14.386 12.6936 13.1545ZM12.1278 18.7792L15.4227 18.2134C15.689 18.2134 15.9552 18.3798 15.9885 18.646C16.0218 18.7459 16.0218 18.879 15.9552 18.9789L14.6905 22.0408C13.5256 21.2753 12.5937 20.1104 12.1278 18.7792ZM19.6828 22.9061C19.2168 23.0059 18.7509 23.0725 18.2517 23.0725C17.5527 23.0725 16.8205 22.9394 16.1549 22.7397L17.7857 19.7776C17.9521 19.5779 18.2184 19.5114 18.4513 19.6445C18.5512 19.7111 18.6178 19.7776 18.7176 19.8775L20.3151 22.773C20.1154 22.8063 19.9157 22.8395 19.6828 22.9061ZM23.7432 20.0106C23.2439 20.8093 22.545 21.5083 21.7462 22.0075L20.4483 18.879C20.3817 18.6128 20.5148 18.3465 20.7478 18.2467C20.8476 18.2134 20.9475 18.1801 21.0473 18.1801L24.3755 18.7459C24.2091 19.2118 24.0094 19.6445 23.7432 20.0106Z" fill="white"/>
</svg>
